# xmcd
#
# Track frame offsets: 
#        150
#        21244
#        39565
#        58471
#        77418
#        99150
#        120354
#        143910
#        161931
#        182651
#        202913
#        225182
#        240204
#        265108
#        286916
#        308889
#
# Disc length: 4419 seconds
#
# Revision: 0
# Processed by: cddbd v1.4PL0 Copyright (c) Steve Scherf et al.
# Submitted via: ExactAudioCopy v0.95a4
#
DISCID=c8114110
DTITLE=Celine Dion - Celine Dion
DYEAR=1900
DGENRE=Easy Listening
TTITLE0=My Heart Will Go On
TTITLE1=That's The Way It Is
TTITLE2=Then You Look At Me
TTITLE3=Immortality
TTITLE4=The Power Of Love
TTITLE5=To Love You More
TTITLE6=Let's Talk About Love
TTITLE7=Live
TTITLE8=I'm Your Angel
TTITLE9=The Prayer
TTITLE10=Ave Maria
TTITLE11=Here There and Everywhere
TTITLE12=Because You Loved Me
TTITLE13=Tous Les Blues Sont Ecrits Pour Toi
TTITLE14=Tell Him
TTITLE15=The Reason
EXTD=
EXTT0=
EXTT1=
EXTT2=
EXTT3=
EXTT4=
EXTT5=
EXTT6=
EXTT7=
EXTT8=
EXTT9=
EXTT10=
EXTT11=
EXTT12=
EXTT13=
EXTT14=
EXTT15=
PLAYORDER=
